<?xml version="1.0" encoding="UTF-8"?>
<svg width="240px" height="240px" viewBox="0 0 240 240" version="1.1" xmlns="http://www.w3.org/2000/svg" xmlns:xlink="http://www.w3.org/1999/xlink">
    <title>user_sugar_浅底</title>
    <g id="user_sugar_浅底" stroke="none" stroke-width="1" fill="none" fill-rule="evenodd">
        <rect id="矩形" fill="#AA7A5C" fill-rule="nonzero" x="0" y="0" width="240" height="240"></rect>
        <g id="编组-2" transform="translate(30.000000, 38.000000)">
            <circle id="椭圆形" fill="#FFFFFF" cx="25.7352941" cy="28.8235294" r="12.3529412"></circle>
            <circle id="椭圆形备份" fill="#FFFFFF" cx="153.382353" cy="28.8235294" r="12.3529412"></circle>
            <path d="M89.5588235,0 C135.041097,-8.3549581e-15 171.911765,36.8706677 171.911765,82.3529412 L171.911765,202 L171.911765,202 C144.901961,202 117.598039,202 90,202 C62.4019608,202 34.8039216,202 7.20588235,202 L7.20588235,82.3529412 C7.20588235,36.8706677 44.07655,8.3549581e-15 89.5588235,0 Z" id="矩形" fill="#FFFFFF"></path>
            <path d="M90.5882353,121 C111.055258,121 127.647059,137.5918 127.647059,158.058824 L127.647059,202 L127.647059,202 L53.5294118,202 L53.5294118,158.058824 C53.5294118,137.5918 70.1212122,121 90.5882353,121 Z" id="矩形" fill="#F2D5C2"></path>
            <path d="M80.5921317,48.3823529 L98.5255154,48.3823529 C103.073743,48.3823529 106.760809,52.0694197 106.760809,56.6176471 C106.760809,57.0265534 106.730354,57.4348919 106.669697,57.8392743 L102.43779,86.0519901 C102.135439,88.0676605 100.403919,89.5588235 98.3656989,89.5588235 L80.7519482,89.5588235 C78.7137276,89.5588235 76.9822079,88.0676605 76.6798573,86.0519901 L72.44795,57.8392743 C71.7732639,53.3413669 74.8725971,49.1481514 79.3705044,48.4734653 C79.7748868,48.412808 80.1832253,48.3823529 80.5921317,48.3823529 Z" id="矩形" fill="#F2D5C2"></path>
            <path d="M89.6143196,20.5882525 L89.5165158,20.5882353 C95.1579898,20.5882353 100.747314,21.7561299 109.596638,27.3444383 C123.138996,35.896377 135.277684,46.5005075 135.860954,58.5539071 C136.410037,69.9008188 126.311918,78.2352941 114.81022,78.2352941 C105.443824,78.2352941 93.6242543,68.9098269 89.55845,59.1257877 C85.4933927,68.9098269 73.6738229,78.2352941 64.3074268,78.2352941 C52.8057294,78.2352941 42.7076099,69.9008188 43.2566927,58.5539071 C43.8399628,46.5005075 55.9786507,35.896377 69.5210094,27.3444383 C78.3703333,21.7561299 83.9596572,20.5882353 89.6011312,20.5882353 L89.5033275,20.5882525 L89.5033275,20.5882525 L89.6143196,20.5882525 L89.6143196,20.5882525 Z" id="形状结合备份" fill="#C59475"></path>
            <path d="M86.2388347,51.2922746 C83.8523319,48.0402162 79.9885976,44.715133 76.4235736,42.7771813 C72.8585496,40.8392297 69.8366953,40.3712613 71.4975276,36.4199611 C73.109512,32.5848757 81.9955627,25.8268889 89.3047006,25.736216 L89.8129464,25.736216 C97.1220844,25.8268889 106.008135,32.5848757 107.620119,36.4199611 C109.280952,40.3712613 106.259097,40.8392297 102.694073,42.7771813 C99.1290495,44.715133 95.2653152,48.0402162 92.8788124,51.2922746 C91.3911785,53.3194553 90.3269926,55.6025509 89.6862548,58.1415615 C89.6442155,58.3183301 89.601691,58.4960705 89.5588235,58.6745363 L89.4313923,58.1415615 C88.7906544,55.6025509 87.7264686,53.3194553 86.2388347,51.2922746 Z" id="形状结合备份-2" fill="#391F0D"></path>
            <path d="M90.0735294,76.1764706 L90.5648456,97.7943834 C90.5774731,98.3499941 90.1372983,98.8106421 89.5816877,98.8232696 C89.5740675,98.8234428 89.5664456,98.8235294 89.5588235,98.8235294 C89.0030694,98.8235294 88.5525417,98.3730017 88.5525417,97.8172475 C88.5525417,97.8096254 88.5526283,97.8020036 88.5528014,97.7943834 L89.0441176,76.1764706 C89.0505782,75.8922064 89.2862572,75.667002 89.5705214,75.6734626 C89.845693,75.6797165 90.0672755,75.901299 90.0735294,76.1764706 Z" id="矩形" fill="#391F0D" transform="translate(89.558824, 76.176471) scale(1, -1) translate(-89.558824, -76.176471) "></path>
            <g id="编组" transform="translate(114.264706, 16.470588)">
                <ellipse id="椭圆形备份-20" fill="#000000" transform="translate(10.808824, 11.529412) rotate(-30.000000) translate(-10.808824, -11.529412) " cx="10.8088235" cy="11.5294118" rx="6.48529412" ry="9.36764706"></ellipse>
                <ellipse id="椭圆形备份-21" fill="#FFFFFF" transform="translate(9.316176, 8.544118) rotate(-30.000000) translate(-9.316176, -8.544118) " cx="9.31617647" cy="8.54411765" rx="2.16176471" ry="2.88235294"></ellipse>
            </g>
            <g id="编组" transform="translate(53.852941, 27.970588) scale(-1, 1) translate(-53.852941, -27.970588) translate(42.852941, 16.470588)">
                <ellipse id="椭圆形备份-20" fill="#000000" transform="translate(10.808824, 11.529412) rotate(-30.000000) translate(-10.808824, -11.529412) " cx="10.8088235" cy="11.5294118" rx="6.48529412" ry="9.36764706"></ellipse>
                <ellipse id="椭圆形备份-21" fill="#FFFFFF" transform="translate(9.316176, 8.544118) rotate(-30.000000) translate(-9.316176, -8.544118) " cx="9.31617647" cy="8.54411765" rx="2.16176471" ry="2.88235294"></ellipse>
            </g>
        </g>
    </g>
</svg>